<svg xmlns="http://www.w3.org/2000/svg" width="10.5" height="12" viewBox="0 0 10.5 12"><path d="M3,3.469V2.531a.282.282,0,0,1,.281-.281h.938a.282.282,0,0,1,.281.281v.938a.282.282,0,0,1-.281.281H3.281A.282.282,0,0,1,3,3.469Zm3.281.281h.938A.282.282,0,0,0,7.5,3.469V2.531a.282.282,0,0,0-.281-.281H6.281A.282.282,0,0,0,6,2.531v.938A.282.282,0,0,0,6.281,3.75ZM3.281,6h.938A.282.282,0,0,0,4.5,5.719V4.781A.282.282,0,0,0,4.219,4.5H3.281A.282.282,0,0,0,3,4.781v.938A.282.282,0,0,0,3.281,6Zm3,0h.938A.282.282,0,0,0,7.5,5.719V4.781A.282.282,0,0,0,7.219,4.5H6.281A.282.282,0,0,0,6,4.781v.938A.282.282,0,0,0,6.281,6ZM4.5,7.969V7.031a.282.282,0,0,0-.281-.281H3.281A.282.282,0,0,0,3,7.031v.938a.282.282,0,0,0,.281.281h.938A.282.282,0,0,0,4.5,7.969Zm1.781.281h.938A.282.282,0,0,0,7.5,7.969V7.031a.282.282,0,0,0-.281-.281H6.281A.282.282,0,0,0,6,7.031v.938A.282.282,0,0,0,6.281,8.25ZM10.5,11.156V12H0v-.844a.282.282,0,0,1,.281-.281H.738V.563A.561.561,0,0,1,1.3,0H9.2a.561.561,0,0,1,.563.563V10.875h.457A.282.282,0,0,1,10.5,11.156Zm-8.637-.3H4.5V9.281A.282.282,0,0,1,4.781,9h.938A.282.282,0,0,1,6,9.281v1.57H8.637v-9.7L1.875,1.125Z"/></svg>