<svg xmlns="http://www.w3.org/2000/svg" width="10" height="10" viewBox="0 0 10 10"><path d="M9.836,35.351,10,34.458a.268.268,0,0,0-.264-.315H8.062l.326-1.828A.268.268,0,0,0,8.125,32H7.218a.268.268,0,0,0-.264.221l-.343,1.922h-2.2l.326-1.828A.268.268,0,0,0,4.472,32H3.565a.268.268,0,0,0-.264.221l-.343,1.922H1.193a.268.268,0,0,0-.264.221l-.159.893a.268.268,0,0,0,.264.315H2.7l-.51,2.857H.427a.268.268,0,0,0-.264.221L0,39.542a.268.268,0,0,0,.264.315h1.67l-.326,1.828A.268.268,0,0,0,1.875,42h.907a.268.268,0,0,0,.264-.221l.343-1.922h2.2l-.326,1.828A.268.268,0,0,0,5.528,42h.907a.268.268,0,0,0,.264-.221l.343-1.922H8.807a.268.268,0,0,0,.264-.221l.159-.893a.268.268,0,0,0-.264-.315H7.3l.51-2.857H9.573a.268.268,0,0,0,.264-.221ZM5.846,38.429h-2.2l.51-2.857h2.2Z" transform="translate(0 -32)"/></svg>