<svg xmlns="http://www.w3.org/2000/svg" width="15" height="14.944" viewBox="0 0 15 14.944"><g transform="translate(0 -0.949)"><g transform="translate(0 8.393)"><path d="M14.062,255.051H.937a.937.937,0,0,0,0,1.875H14.062a.938.938,0,1,0,0-1.875Zm0,1.25H.937a.313.313,0,0,1,0-.625H14.062a.313.313,0,0,1,0,.625Z" transform="translate(0 -255.051)"/></g><g transform="translate(0.625 9.643)"><path d="M34.867,297.728a.311.311,0,0,0-.386.215l-.861,3.015a1.57,1.57,0,0,1-1.5,1.133h-7.8a1.57,1.57,0,0,1-1.5-1.133l-.861-3.015a.312.312,0,1,0-.6.171l.861,3.015a2.2,2.2,0,0,0,2.1,1.587h7.8a2.2,2.2,0,0,0,2.1-1.587l.861-3.015A.312.312,0,0,0,34.867,297.728Z" transform="translate(-21.344 -297.716)"/></g><g transform="translate(2.283 10.894)"><path d="M79.242,342.273a.315.315,0,0,1-.3-.227l-.406-1.421a.312.312,0,1,0-.6.171l.406,1.421a.94.94,0,0,0,.9.68.312.312,0,1,0,0-.624Z" transform="translate(-77.923 -340.398)"/></g><g transform="translate(3.125 14.018)"><path d="M107.731,447.085a.314.314,0,0,0-.419.14l-.625,1.25a.313.313,0,1,0,.559.279l.625-1.25A.313.313,0,0,0,107.731,447.085Z" transform="translate(-106.654 -447.053)"/></g><g transform="translate(10.625 14.019)"><path d="M363.892,448.478l-.625-1.25a.313.313,0,1,0-.559.279l.625,1.25a.312.312,0,0,0,.279.172.323.323,0,0,0,.14-.033A.313.313,0,0,0,363.892,448.478Z" transform="translate(-362.675 -447.055)"/></g><g transform="translate(10.625 0.949)"><g transform="translate(0 0)"><path d="M364.611.949a1.186,1.186,0,0,0-.844.35l-.992.992a.312.312,0,1,0,.442.442l.992-.991a.571.571,0,0,1,.974.4V8.706a.313.313,0,1,0,.626,0V2.143A1.2,1.2,0,0,0,364.611.949Z" transform="translate(-362.683 -0.949)"/></g></g><g transform="translate(8.75 1.887)"><g transform="translate(0 0)"><path d="M301.4,33.68l-.625-.625a.307.307,0,0,0-.272-.088l-1.562.256a.312.312,0,0,0-.174.526l1.875,1.931a.309.309,0,0,0,.224.1.342.342,0,0,0,.089-.013.311.311,0,0,0,.218-.238l.313-1.562A.313.313,0,0,0,301.4,33.68Zm-.724,1.139-1.044-1.076.814-.133.393.393Z" transform="translate(-298.677 -32.963)"/></g></g><g transform="translate(6.25 4.644)"><path d="M214.486,127.158a.313.313,0,0,0-.442,0l-.625.625a.312.312,0,0,0,.442.442l.625-.625A.313.313,0,0,0,214.486,127.158Z" transform="translate(-213.328 -127.067)"/></g><g transform="translate(7.5 5.894)"><path d="M257.153,169.824a.313.313,0,0,0-.442,0l-.625.625a.312.312,0,0,0,.442.442l.625-.625A.313.313,0,0,0,257.153,169.824Z" transform="translate(-255.995 -169.733)"/></g><g transform="translate(8.125 4.019)"><path d="M278.486,105.824a.313.313,0,0,0-.442,0l-.625.625a.312.312,0,0,0,.442.442l.625-.625A.313.313,0,0,0,278.486,105.824Z" transform="translate(-277.328 -105.733)"/></g></g></svg>