<svg xmlns="http://www.w3.org/2000/svg" width="14.265" height="14.213" viewBox="0 0 14.265 14.213"><g transform="translate(0 -34.087)"><g transform="translate(0 34.087)"><path d="M13.909,42.079V36.441h0a1.484,1.484,0,0,0,.349-.973,1.3,1.3,0,0,0-1.2-1.381,1.3,1.3,0,0,0-1.2,1.381,1.5,1.5,0,0,0,.276.881H9.654a3.443,3.443,0,0,0-2.2-.8H6.807a3.443,3.443,0,0,0-2.2.8H2.134a1.5,1.5,0,0,0,.276-.881,1.3,1.3,0,0,0-1.2-1.381,1.3,1.3,0,0,0-1.2,1.381,1.484,1.484,0,0,0,.349.973v5.638A2.218,2.218,0,0,0,0,43.3V46.45a.3.3,0,0,0,.279.32H.356v1.21a.3.3,0,0,0,.279.32H1.783a.3.3,0,0,0,.279-.32V46.77H12.2v1.21a.3.3,0,0,0,.279.32H13.63a.3.3,0,0,0,.279-.32V46.77h.078a.3.3,0,0,0,.279-.32V43.3A2.218,2.218,0,0,0,13.909,42.079Zm-.853-7.351a.7.7,0,0,1,.644.74.8.8,0,0,1-.187.522l-.081.094a.346.346,0,0,0-.081.226v5.215a1.654,1.654,0,0,0-.272-.139l-.013,0h0a1.562,1.562,0,0,0-.3-.084V36.309a.346.346,0,0,0-.081-.226l-.081-.094a.8.8,0,0,1-.187-.521A.7.7,0,0,1,13.056,34.728Zm-11,2.262H4.7a.256.256,0,0,0,.167-.064,2.949,2.949,0,0,1,1.939-.74h.651a2.949,2.949,0,0,1,1.939.74.256.256,0,0,0,.167.064H12.2v3.83a1.383,1.383,0,0,0-1.286-1.4H9.21A1.267,1.267,0,0,0,8.1,38.7H6.162a1.267,1.267,0,0,0-1.107.724H3.347a1.383,1.383,0,0,0-1.286,1.4V36.989Zm7.33,3.173v0s0-.009,0-.013v0q0-.038,0-.076h1.531a.792.792,0,0,1,.731.84v.37H9.391V40.18C9.391,40.174,9.391,40.168,9.391,40.163Zm-.557,0v0s0,.007,0,.011v1.093h-3.4V40.18s0-.007,0-.011v0s0-.006,0-.009h0a.789.789,0,0,1,.73-.818H8.1a.789.789,0,0,1,.73.818h0S8.834,40.164,8.834,40.167Zm-3.956-.1q0,.038,0,.077v0s0,.009,0,.013,0,0,0,0,0,.012,0,.017v1.093H2.617V40.9a.792.792,0,0,1,.731-.84ZM1.209,34.728a.7.7,0,0,1,.644.74.8.8,0,0,1-.187.522l-.081.094a.346.346,0,0,0-.081.226v4.986a1.561,1.561,0,0,0-.3.084h0l-.012,0a1.655,1.655,0,0,0-.272.139V36.309a.346.346,0,0,0-.081-.226l-.081-.094a.8.8,0,0,1-.187-.521A.7.7,0,0,1,1.209,34.728ZM1.5,47.66H.913v-.89H1.5Zm11.848,0h-.591v-.89h.591Zm.356-1.531H.557V44.865H13.708Zm0-1.9H.557V43.3A1.575,1.575,0,0,1,.6,42.927H10.908a.323.323,0,0,0,0-.64H.941a1.19,1.19,0,0,1,.426-.3l.011,0h0a1.067,1.067,0,0,1,.317-.07H12.57a1.068,1.068,0,0,1,.33.075h.006a1.389,1.389,0,0,1,.8,1.305Z" transform="translate(0 -34.087)"/></g></g></svg>