<svg xmlns="http://www.w3.org/2000/svg" width="9" height="7.875" viewBox="0 0 9 7.875"><path d="M5.337,38.75H4.212a.281.281,0,0,0-.281.281v.562a.281.281,0,0,0,.281.281H5.337a.281.281,0,0,0,.281-.281v-.562A.281.281,0,0,0,5.337,38.75ZM.275,34.25h.844v5.344a.281.281,0,0,0,.281.281h.562a.281.281,0,0,0,.281-.281V34.25h.844a.281.281,0,0,0,.2-.48L1.88,32.082a.281.281,0,0,0-.4,0L.076,33.77A.281.281,0,0,0,.275,34.25Zm7.312,0H4.212a.281.281,0,0,0-.281.281v.562a.281.281,0,0,0,.281.281H7.587a.281.281,0,0,0,.281-.281v-.562A.281.281,0,0,0,7.587,34.25ZM6.462,36.5H4.212a.281.281,0,0,0-.281.281v.562a.281.281,0,0,0,.281.281h2.25a.281.281,0,0,0,.281-.281v-.562A.281.281,0,0,0,6.462,36.5ZM8.712,32h-4.5a.281.281,0,0,0-.281.281v.562a.281.281,0,0,0,.281.281h4.5a.281.281,0,0,0,.281-.281v-.562A.281.281,0,0,0,8.712,32Z" transform="translate(0.007 -32)" fill="#31343a"/></svg>