<svg xmlns="http://www.w3.org/2000/svg" width="14" height="14" viewBox="0 0 14 14"><g transform="translate(-2 -2)"><path d="M15.8,16H2.2a.2.2,0,0,1-.2-.2V2.2a.2.2,0,0,1,.341-.141l13.6,13.6A.2.2,0,0,1,15.8,16ZM2.4,15.6H15.317L2.4,2.683Z"/><path d="M19.289,35.045H13.2a.2.2,0,0,1-.2-.2V28.756a.2.2,0,0,1,.341-.141L19.43,34.7a.2.2,0,0,1-.141.341Zm-5.889-.4h5.406L13.4,29.239Z" transform="translate(-8.8 -21.245)"/><path d="M53.731,68.08a.2.2,0,0,1-.2-.2V67.3a.2.2,0,1,1,.4,0v.58A.2.2,0,0,1,53.731,68.08Z" transform="translate(-41.225 -52.08)"/><path d="M46.731,67.2a.2.2,0,0,1-.2-.2v-.8a.2.2,0,1,1,.4,0V67A.2.2,0,0,1,46.731,67.2Z" transform="translate(-35.625 -51.2)"/><path d="M39.731,68.08a.2.2,0,0,1-.2-.2V67.3a.2.2,0,1,1,.4,0v.58A.2.2,0,0,1,39.731,68.08Z" transform="translate(-30.025 -52.08)"/><path d="M32.731,67.2a.2.2,0,0,1-.2-.2v-.8a.2.2,0,1,1,.4,0V67A.2.2,0,0,1,32.731,67.2Z" transform="translate(-24.425 -51.2)"/><path d="M25.731,68.08a.2.2,0,0,1-.2-.2V67.3a.2.2,0,1,1,.4,0v.58A.2.2,0,0,1,25.731,68.08Z" transform="translate(-18.825 -52.08)"/><path d="M18.731,67.2a.2.2,0,0,1-.2-.2v-.8a.2.2,0,1,1,.4,0V67A.2.2,0,0,1,18.731,67.2Z" transform="translate(-13.225 -51.2)"/><path d="M11.731,68.08a.2.2,0,0,1-.2-.2V67.3a.2.2,0,1,1,.4,0v.58A.2.2,0,0,1,11.731,68.08Z" transform="translate(-7.625 -52.08)"/><path d="M2.78,59.4H2.2a.2.2,0,0,1,0-.4h.58a.2.2,0,0,1,0,.4Z" transform="translate(0 -45.6)"/><path d="M3,52.4H2.2a.2.2,0,1,1,0-.4H3a.2.2,0,1,1,0,.4Z" transform="translate(0 -40)"/><path d="M2.78,45.4H2.2a.2.2,0,0,1,0-.4h.58a.2.2,0,0,1,0,.4Z" transform="translate(0 -34.4)"/><path d="M3,38.4H2.2a.2.2,0,0,1,0-.4H3a.2.2,0,0,1,0,.4Z" transform="translate(0 -28.8)"/><path d="M2.78,31.4H2.2a.2.2,0,0,1,0-.4h.58a.2.2,0,0,1,0,.4Z" transform="translate(0 -23.2)"/><path d="M3,24.4H2.2a.2.2,0,0,1,0-.4H3a.2.2,0,1,1,0,.4Z" transform="translate(0 -17.6)"/><path d="M2.78,17.4H2.2a.2.2,0,0,1,0-.4h.58a.2.2,0,0,1,0,.4Z" transform="translate(0 -12)"/></g></svg>